<svg width="32" height="32" viewBox="0 0 32 32" fill="none" xmlns="http://www.w3.org/2000/svg">
<path fill-rule="evenodd" clip-rule="evenodd" d="M11.1385 21.5905C11.4556 21.4944 11.7906 21.6736 11.8867 21.9907L13.1967 26.3137C13.1996 26.3231 13.2022 26.3326 13.2046 26.3422C13.2918 26.691 13.3016 27.0774 13.1712 27.4427C13.0364 27.82 12.765 28.1353 12.3668 28.3343C11.5842 28.7257 10.614 28.5213 10.0465 27.7647L10.0358 27.75L7.54683 24.213C7.35613 23.942 7.42122 23.5677 7.69222 23.377C7.96322 23.1863 8.3375 23.2514 8.5282 23.5224L11.0113 27.051C11.23 27.3369 11.5668 27.3927 11.8302 27.261C11.9561 27.1981 12.0121 27.1203 12.0411 27.0391C12.0736 26.9482 12.0837 26.8151 12.0436 26.6461L10.7383 22.3387C10.6422 22.0216 10.8214 21.6866 11.1385 21.5905Z" fill="white"/>
<path fill-rule="evenodd" clip-rule="evenodd" d="M21.9541 11.4863C22.2808 11.4308 22.5906 11.6507 22.6461 11.9774L25.0028 25.8556C25.2029 26.8862 24.4044 27.8009 23.4963 27.9902C22.7033 28.1818 21.9458 27.7895 21.5629 27.2248L15.2814 18.5877C15.0864 18.3197 15.1457 17.9444 15.4137 17.7495C15.6817 17.5546 16.0569 17.6139 16.2518 17.8819L22.5398 26.5279C22.5446 26.5345 22.5493 26.5412 22.5538 26.5479C22.6952 26.76 22.9743 26.8839 23.2191 26.8227C23.2283 26.8204 23.2376 26.8183 23.2469 26.8164C23.6402 26.7378 23.8783 26.3517 23.8242 26.0814L23.821 26.0642L21.463 12.1782C21.4076 11.8516 21.6274 11.5417 21.9541 11.4863Z" fill="white"/>
<path fill-rule="evenodd" clip-rule="evenodd" d="M24.8831 3.47047C24.0856 3.76584 23.3392 4.30581 23.003 4.64209L10.1655 17.4795C10.1655 17.4795 10.165 17.4801 9.74797 17.063L10.1655 17.4795C9.76306 17.882 9.29433 18.5567 8.8087 19.3823C8.32898 20.1978 7.8539 21.1232 7.43208 21.9993C7.10222 22.6844 6.80686 23.3353 6.5695 23.8739C7.1072 23.6252 7.75701 23.3159 8.43877 22.9719C9.30672 22.5338 10.2195 22.0429 11.0162 21.5517C11.8244 21.0535 12.4703 20.5806 12.838 20.1845C12.8431 20.1791 12.8482 20.1738 12.8534 20.1685L13.2777 20.5928C12.8534 20.1685 12.8534 20.1685 12.8534 20.1685L25.6914 7.33055C25.7042 7.31773 25.7176 7.30549 25.7316 7.29388C26.0267 7.04792 26.5625 6.32595 26.8618 5.5029C27.1688 4.65864 27.1349 3.98959 26.7394 3.59409C26.343 3.19764 25.7053 3.16594 24.8831 3.47047ZM13.7095 21.0095C13.2254 21.5279 12.4668 22.0671 11.646 22.5732C10.8094 23.089 9.86359 23.597 8.97942 24.0432C8.09401 24.49 7.2634 24.8784 6.65451 25.155C6.34986 25.2934 6.10023 25.404 5.9264 25.4802C5.83948 25.5183 5.77148 25.5477 5.725 25.5678L5.67173 25.5907L5.65311 25.5987C5.65311 25.5987 5.65266 25.5989 5.41773 25.0468C4.86146 24.8219 4.86152 24.8217 4.86152 24.8217L4.86921 24.8028L4.891 24.7495C4.91008 24.703 4.93814 24.6349 4.97441 24.5479C5.04695 24.3738 5.15239 24.1236 5.28458 23.8179C5.54878 23.207 5.92065 22.3723 6.35088 21.4787C6.78055 20.5863 7.27159 19.6286 7.77438 18.7739C8.27124 17.9292 8.80193 17.1461 9.31646 16.6315L9.73962 17.0547C9.31646 16.6315 9.31646 16.6315 9.31646 16.6315L22.1544 3.79356C22.6042 3.34383 23.4953 2.70481 24.4663 2.34518C25.4125 1.99472 26.6744 1.83201 27.5879 2.74556C28.5024 3.66005 28.3376 4.956 27.9896 5.91299C27.6393 6.87631 27.0101 7.77886 26.5223 8.19675L13.7095 21.0095ZM5.41773 25.0468L4.86152 24.8217C4.77053 25.0468 4.8241 25.3048 4.99733 25.4749C5.17057 25.645 5.4297 25.6937 5.65311 25.5987L5.41773 25.0468Z" fill="white"/>
<path fill-rule="evenodd" clip-rule="evenodd" d="M3.55623 18.4232C3.47503 18.4522 3.39727 18.5083 3.33434 18.6341C3.20207 18.8987 3.25893 19.2372 3.54811 19.4559L6.95069 21.9424C7.21823 22.1379 7.19576 22.2324 7.00024 22.5C6.80473 22.7675 6.51021 23.1067 6.24267 22.9112L2.83066 20.4178C2.07407 19.8504 1.86969 18.8802 2.26103 18.0975C2.46009 17.6993 2.77533 17.4279 3.15263 17.2931C3.51792 17.1627 3.9044 17.1725 4.2532 17.2597L4.27013 17.2642L8.46212 18.4432C8.78112 18.5329 8.96699 18.8643 8.87727 19.1833C8.78755 19.5022 8.45622 19.6881 8.13723 19.5984L3.95455 18.422C3.78298 18.3804 3.64809 18.3904 3.55623 18.4232Z" fill="white"/>
<path fill-rule="evenodd" clip-rule="evenodd" d="M4.60907 5.46157L18.4873 7.81826C18.814 7.87373 19.0339 8.18354 18.9784 8.51024C18.9229 8.83693 18.6131 9.0568 18.2864 9.00132L4.40045 6.64333L4.38323 6.64014C4.113 6.5861 3.72692 6.82415 3.64826 7.21746C3.64639 7.2268 3.6443 7.23608 3.64199 7.24531C3.58081 7.49003 3.70466 7.76918 3.91673 7.91056C3.92352 7.91509 3.93021 7.91975 3.93681 7.92455L12.5828 14.2125C12.8508 14.4074 12.6949 14.732 12.5 15C12.3051 15.268 12.145 15.3779 11.877 15.183L3.23984 8.90145C2.67522 8.51855 2.28287 7.76111 2.47442 6.9681C2.66374 6.05999 3.57848 5.26146 4.60907 5.46157Z" fill="white"/>
<path fill-rule="evenodd" clip-rule="evenodd" d="M22.6352 3.49141C23.8493 3.33964 24.9559 3.65054 25.8848 4.57951C26.517 5.21166 26.8627 5.98634 26.9715 6.75787C27.0232 7.12437 26.8039 7.32045 26.754 7.66991C26.7071 7.99795 26.3282 8.04688 26.0001 8.00002C25.6721 7.95315 25.7367 7.99795 25.7836 7.66991C25.8906 6.92104 25.6759 6.06759 25.0363 5.42804C24.3933 4.78501 23.6659 4.57191 22.784 4.68214C22.4552 4.72324 22.1553 4.49001 22.1142 4.16119C22.0731 3.83238 22.3064 3.53251 22.6352 3.49141Z" fill="white"/>
</svg>
