<svg width="32" height="32" viewBox="0 0 32 32" fill="none" xmlns="http://www.w3.org/2000/svg">
<path fill-rule="evenodd" clip-rule="evenodd" d="M5.88828 4.78814C5.68119 4.69299 5.43808 4.72338 5.26078 4.86658C3.34432 6.41449 2.38355 8.18408 2.13376 9.99027C2.00868 10.8947 2.06403 11.7919 2.25333 12.657C2.28266 12.791 2.32038 12.9433 2.34942 13.0515C2.53949 13.7604 2.81682 14.4446 3.15488 15.09C3.48773 15.7254 3.72984 16.7195 3.89108 17.9127C4.05024 19.0905 4.12345 20.403 4.14933 21.6366C4.17517 22.8685 4.15365 24.0113 4.12558 24.8468C4.11156 25.2643 4.09593 25.6042 4.08384 25.8393C4.07779 25.9569 4.07263 26.0482 4.06901 26.1097L4.0648 26.1794L4.0637 26.1967L4.06337 26.202C4.05251 26.3676 4.11072 26.5302 4.22416 26.6514C4.3376 26.7725 4.49613 26.8412 4.66208 26.8412H6.89226C7.22363 26.8412 7.49226 26.5726 7.49226 26.2412C7.49226 25.7445 7.46567 25.1301 7.43677 24.4623C7.42823 24.265 7.41949 24.0631 7.41118 23.8582C7.37428 22.9487 7.3445 21.9588 7.37009 20.9776C7.39573 19.9948 7.47668 19.0374 7.65566 18.1918C7.76838 17.6593 7.91666 17.1876 8.10426 16.7882C8.41258 17.0794 8.71182 17.3784 9.00194 17.6824C10.7698 19.5353 12.1706 21.5463 13.2134 23.0755C13.5204 23.6074 14.1709 24.541 14.9658 25.3539C15.3695 25.7669 15.8257 26.1644 16.3079 26.4621C16.7852 26.7567 17.3317 26.9806 17.9037 26.9806H26.1275C27.5127 26.9806 28.4485 26.7275 29.0564 26.3223C29.6842 25.9037 29.9334 25.3379 29.9334 24.8474C29.9334 24.8252 29.9321 24.8031 29.9297 24.7811C29.8819 24.3505 29.672 23.8236 29.3737 23.2986C29.0678 22.7603 28.6411 22.1754 28.1097 21.6253C27.052 20.5305 25.5309 19.5261 23.6684 19.3709C23.4925 19.3563 23.3191 19.4198 23.1943 19.5446C23.0505 19.6884 22.7667 19.8507 22.3422 19.9709C21.9287 20.0879 21.4283 20.1515 20.901 20.1357C19.8371 20.104 18.7648 19.7557 18.0733 19.0124C17.6875 18.5595 17.0817 17.6328 16.2742 16.3939L16.2736 16.3929C15.4751 15.168 14.5056 13.6808 13.4252 12.1788C12.3451 10.6772 11.1457 9.14885 9.88284 7.84142C8.62502 6.53922 7.27503 5.42529 5.88828 4.78814ZM3.86876 13.7913C3.97346 14.0419 4.09025 14.2895 4.21788 14.5332C4.65166 15.3613 4.91483 16.5277 5.08027 17.752C5.24779 18.9917 5.32268 20.3536 5.34907 21.6115C5.37549 22.8712 5.35346 24.0369 5.3249 24.8871C5.31513 25.178 5.30458 25.4323 5.29492 25.6412H6.28202C6.27212 25.307 6.25609 24.9362 6.23872 24.5345L6.23867 24.5333L6.22461 24.2061C6.22045 24.108 6.21628 24.0082 6.21217 23.9069C6.17502 22.9913 6.14382 21.9689 6.1705 20.9463C6.19713 19.9255 6.2817 18.888 6.48167 17.9433C6.63189 17.2337 6.85211 16.5522 7.1789 15.9632C6.16337 15.1113 5.05981 14.3602 3.86876 13.7913ZM3.40117 12.2842C5.16731 12.9628 6.7449 14.0071 8.13511 15.2009L8.16763 15.228C8.26048 15.3051 8.51119 15.5131 8.57311 15.5873C9.02656 15.998 9.45889 16.423 9.87015 16.8541C11.719 18.7918 13.1713 20.8835 14.2179 22.4186C14.2268 22.4317 14.2352 22.4451 14.2431 22.4589C14.4989 22.9066 15.0961 23.7708 15.8238 24.515C16.1867 24.8861 16.5668 25.2117 16.9383 25.441C17.3148 25.6734 17.6395 25.7806 17.9037 25.7806H26.1275C27.3906 25.7806 28.0577 25.5458 28.3907 25.3238C28.6681 25.1389 28.7229 24.9602 28.7318 24.8753C28.6997 24.6719 28.5777 24.3266 28.3304 23.8915C28.0744 23.441 27.7084 22.937 27.2467 22.4591C26.369 21.5506 25.1892 20.7793 23.8105 20.5932C23.4906 20.832 23.0891 21.0066 22.6691 21.1255C22.1287 21.2785 21.5052 21.3543 20.8652 21.3352C19.5983 21.2974 18.1655 20.8814 17.1841 19.8183L17.1778 19.8114L17.1694 19.8018C16.7258 19.2842 16.0761 18.2875 15.3066 17.107L15.2689 17.0493C14.469 15.822 13.5134 14.3564 12.451 12.8795C11.3881 11.4017 10.2266 9.92454 9.01974 8.67512C7.92149 7.53813 6.8095 6.61498 5.72358 6.04427C4.21745 7.35598 3.51373 8.77154 3.32245 10.1547C3.2244 10.8637 3.25904 11.5792 3.40117 12.2842Z" fill="white"/>
</svg>
