<svg width="24" height="24" viewBox="0 0 24 24" fill="none" xmlns="http://www.w3.org/2000/svg">
<path fill-rule="evenodd" clip-rule="evenodd" d="M7.71466 2.63607C7.91566 2.4899 8.19709 2.53433 8.34327 2.73533C8.81151 3.37916 8.95753 3.95047 8.92307 4.45024C8.89227 4.89676 8.7163 5.24389 8.61332 5.44705C8.6051 5.46327 8.59734 5.47856 8.59017 5.49292C8.58502 5.50322 8.57947 5.51332 8.57355 5.52319C8.56014 5.54554 8.54621 5.56857 8.53189 5.59227C8.36889 5.86187 8.15381 6.21763 8.05194 6.63528C7.94684 7.0662 7.9671 7.54618 8.33934 8.0425C8.48846 8.24133 8.44816 8.52339 8.24934 8.67251C8.05052 8.82162 7.76846 8.78133 7.61934 8.58251C7.05408 7.82883 7.02226 7.05881 7.17757 6.42202C7.31414 5.86207 7.59948 5.39302 7.75963 5.12976C7.77151 5.11023 7.78271 5.09182 7.7931 5.0746C7.79612 5.06858 7.79914 5.06256 7.80215 5.05655C7.90735 4.84679 8.00733 4.64746 8.0252 4.38831C8.04281 4.13287 7.9805 3.76668 7.61541 3.26468C7.46923 3.06369 7.51367 2.78225 7.71466 2.63607ZM10.3188 2.63607C10.5198 2.4899 10.8012 2.53433 10.9474 2.73533C11.4156 3.37916 11.5617 3.95047 11.5272 4.45024C11.4964 4.89676 11.3204 5.24389 11.2174 5.44705C11.2092 5.46327 11.2015 5.47856 11.1943 5.49292C11.1891 5.50322 11.1836 5.51332 11.1777 5.52319C11.1643 5.54554 11.1503 5.56857 11.136 5.59227C10.973 5.86187 10.7579 6.21763 10.6561 6.63528C10.551 7.0662 10.5712 7.54618 10.9435 8.0425C11.0926 8.24133 11.0523 8.52339 10.8535 8.67251C10.6546 8.82162 10.3726 8.78133 10.2235 8.58251C9.65821 7.82883 9.62638 7.05881 9.7817 6.42202C9.91827 5.86208 10.2036 5.39302 10.3638 5.12976C10.3756 5.11023 10.3868 5.09183 10.3972 5.0746C10.4002 5.06858 10.4033 5.06256 10.4063 5.05655C10.5115 4.84679 10.6115 4.64745 10.6293 4.38831C10.6469 4.13287 10.5846 3.76668 10.2195 3.26468C10.0734 3.06369 10.1178 2.78225 10.3188 2.63607ZM12.923 2.63607C13.124 2.4899 13.4054 2.53433 13.5516 2.73533C14.0198 3.37916 14.1658 3.95047 14.1314 4.45024C14.1006 4.89676 13.9246 5.24389 13.8216 5.44705C13.8134 5.46327 13.8056 5.47856 13.7985 5.49292C13.7933 5.50322 13.7878 5.51332 13.7818 5.52319C13.7684 5.54554 13.7545 5.56857 13.7402 5.59227C13.5772 5.86187 13.3621 6.21763 13.2602 6.63528C13.1551 7.0662 13.1754 7.54618 13.5476 8.0425C13.6968 8.24133 13.6565 8.52339 13.4576 8.67251C13.2588 8.82162 12.9768 8.78133 12.8276 8.58251C12.2624 7.82883 12.2306 7.05881 12.3859 6.42202C12.5224 5.86208 12.8078 5.39302 12.9679 5.12976C12.9798 5.11023 12.991 5.09183 13.0014 5.07461C13.0044 5.06858 13.0074 5.06256 13.0104 5.05655C13.1156 4.84679 13.2156 4.64745 13.2335 4.38831C13.2511 4.13287 13.1888 3.76668 12.8237 3.26468C12.6775 3.06369 12.722 2.78225 12.923 2.63607ZM3.46657 12.0625C3.46657 11.2473 4.03014 10.4667 4.95823 10.4667H16.2082C17.1363 10.4667 17.6999 11.2473 17.6999 12.0625C17.6999 12.0705 17.6997 12.0785 17.6993 12.0865C17.6887 12.2853 17.6753 12.4794 17.6594 12.6686C18.0997 12.3358 18.6364 12.1333 19.2295 12.1333C19.9172 12.1333 20.6083 12.4144 21.0335 12.9757C21.4706 13.5527 21.5685 14.3471 21.2131 15.2421C21.0152 15.7949 20.5918 16.2604 20.1034 16.6411C19.6074 17.0276 19.0086 17.3545 18.4075 17.6179C17.3166 18.0959 16.1393 18.3982 15.4432 18.4439C15.1756 18.7059 14.8936 18.9268 14.6025 19.1125H21.0003C21.1823 19.1125 21.3464 19.2221 21.4161 19.3903C21.4857 19.5585 21.4472 19.752 21.3185 19.8807L20.4852 20.714C20.1669 21.0323 19.7772 21.3962 19.3489 21.6817C18.925 21.9643 18.4196 22.2 17.8753 22.2H5.27114C4.72678 22.2 4.22049 21.9645 3.80472 21.6777C3.39083 21.3923 3.02788 21.0295 2.75127 20.6999L1.93211 19.8807C1.80341 19.752 1.76491 19.5585 1.83456 19.3903C1.90421 19.2221 2.0683 19.1125 2.25031 19.1125H6.56394C4.98863 18.1074 3.67969 16.0706 3.4672 12.0865C3.46678 12.0785 3.46657 12.0705 3.46657 12.0625ZM10.5718 19.1125H10.0012C9.18456 19.1015 8.08095 19.0077 7.0609 18.362C5.80603 17.5676 4.57221 15.8576 4.36662 12.0515C4.37113 11.6233 4.63905 11.3667 4.95823 11.3667H16.2082C16.5274 11.3667 16.7953 11.6233 16.7998 12.0515C16.5943 15.8576 15.3604 17.5676 14.1056 18.362C13.0855 19.0077 11.9819 19.1015 11.1653 19.1125H10.5946C10.5908 19.1125 10.587 19.1125 10.5832 19.1125C10.5794 19.1125 10.5756 19.1125 10.5718 19.1125ZM9.91725 20.0125H3.3367L3.40184 20.0776C3.41146 20.0873 3.42063 20.0973 3.42934 20.1078C3.67194 20.3989 3.98105 20.7061 4.31568 20.9369C4.65512 21.171 4.98217 21.3 5.27114 21.3H17.8753C18.1644 21.3 18.4923 21.1711 18.8497 20.9329C19.2026 20.6976 19.542 20.3844 19.8488 20.0776L19.9139 20.0125H11.2492C11.0666 20.0159 10.9019 20.0146 10.7597 20.0135C10.6998 20.013 10.644 20.0126 10.5924 20.0125H10.5741C10.5225 20.0126 10.4666 20.013 10.4068 20.0135C10.2645 20.0146 10.0998 20.0159 9.91725 20.0125ZM16.2886 17.3898C16.8074 17.2633 17.431 17.0632 18.0463 16.7936C18.604 16.5492 19.1315 16.2575 19.5502 15.9312C19.9738 15.601 20.2516 15.2623 20.3676 14.9336C20.3697 14.9277 20.3719 14.922 20.3742 14.9162C20.6398 14.2521 20.5286 13.7997 20.3161 13.5191C20.0903 13.221 19.6876 13.0333 19.2295 13.0333C18.3438 13.0333 17.5582 13.7703 17.3805 14.7472C17.3673 14.82 17.3372 14.8856 17.295 14.9405C17.0454 15.9332 16.6998 16.7384 16.2886 17.3898Z" fill="#A6BDF2"/>
</svg>
