<svg width="32" height="32" viewBox="0 0 32 32" fill="none" xmlns="http://www.w3.org/2000/svg">
<path fill-rule="evenodd" clip-rule="evenodd" d="M3.25293 14.5446C3.25293 14.2132 3.52156 13.9446 3.85293 13.9446H15.6933C16.0247 13.9446 16.2933 14.2132 16.2933 14.5446V21.5023C16.2933 21.8337 16.0247 22.1023 15.6933 22.1023H6.41631C6.25062 22.1023 6.10062 22.0352 5.99204 21.9266C5.99197 21.9265 5.99212 21.9267 5.99204 21.9266L4.16106 20.0956C3.56386 19.4984 3.25293 18.7369 3.25293 17.9624V14.5446ZM6.66484 20.9023H15.0933V15.1446H4.45293V17.9624C4.45293 18.4086 4.63025 18.8677 5.00959 19.2471L6.66484 20.9023Z" fill="white"/>
<path fill-rule="evenodd" clip-rule="evenodd" d="M7.14894 12.4591C6.83032 12.4591 6.52828 12.7171 6.52828 13.0798V13.9445H15.0935V13.0798C15.0935 12.8499 15.0195 12.705 14.9336 12.619C14.8477 12.5331 14.7027 12.4591 14.4729 12.4591H7.14894ZM5.32828 13.0798C5.32828 11.9777 6.2469 11.2591 7.14894 11.2591H14.4729C14.9754 11.2591 15.4408 11.4292 15.7821 11.7705C16.1234 12.1118 16.2935 12.5772 16.2935 13.0798L16.2933 14.5446C16.2933 14.8759 16.0249 15.1445 15.6935 15.1445H5.92828C5.59691 15.1445 5.32828 14.8759 5.32828 14.5445V13.0798Z" fill="white"/>
<path fill-rule="evenodd" clip-rule="evenodd" d="M2.6008 10.0679C2.84847 9.84774 3.22772 9.87005 3.44787 10.1177L4.42439 11.2163C4.52202 11.3261 4.57595 11.468 4.57595 11.6149V14.6666C4.57595 14.9979 4.30732 15.2666 3.97595 15.2666C3.64458 15.2666 3.37595 14.9979 3.37595 14.6666V11.843L2.55097 10.915C2.33082 10.6673 2.35313 10.288 2.6008 10.0679Z" fill="white"/>
<path fill-rule="evenodd" clip-rule="evenodd" d="M19.5811 7.26641C19.691 7.09235 19.8825 6.9868 20.0884 6.9868H21.5532C21.8845 6.9868 22.1532 7.25543 22.1532 7.5868V10.2141L26.3262 16.5332C26.4648 16.7432 26.4577 17.0174 26.3083 17.22L20.8153 24.666C20.7022 24.8193 20.523 24.9098 20.3325 24.9098H15.0837C14.9197 24.9098 14.7629 24.8427 14.6497 24.7241L12.0863 22.0386C11.9205 21.8649 11.8742 21.6091 11.9687 21.3883C12.0632 21.1675 12.2802 21.0244 12.5203 21.0244H18.6866L21.6789 16.9634L18.1217 11.4555C17.7474 10.8905 17.7468 10.1457 18.1198 9.58009L19.5811 7.26641ZM20.4191 8.1868L19.1309 10.2264L19.1228 10.2389C19.0131 10.4035 19.0131 10.6292 19.1228 10.7939L19.1277 10.8012L22.9117 16.6603C23.0469 16.8698 23.0386 17.1411 22.8907 17.3418L19.4728 21.9803C19.3597 22.1338 19.1804 22.2244 18.9898 22.2244H13.9225L15.3404 23.7098H20.0295L25.0939 16.8448L21.0525 10.725C20.9877 10.6268 20.9532 10.5119 20.9532 10.3943V8.1868H20.4191Z" fill="white"/>
<path fill-rule="evenodd" clip-rule="evenodd" d="M17.955 5.5757C18.1893 5.34138 18.5692 5.34138 18.8035 5.5757L20.3903 7.16255C20.6247 7.39687 20.6247 7.77677 20.3903 8.01108C20.156 8.2454 19.7761 8.2454 19.5418 8.01108L17.955 6.42423C17.7206 6.18991 17.7206 5.81001 17.955 5.5757Z" fill="white"/>
<path fill-rule="evenodd" clip-rule="evenodd" d="M22.0777 22.1801C22.1531 21.9349 22.3814 21.7567 22.6513 21.7567H28.0222C28.2804 21.7567 28.5097 21.922 28.5914 22.167C28.719 22.5498 28.8663 23.1123 28.8663 23.5774C28.8663 25.4956 27.255 27.107 25.3367 27.107C23.4185 27.107 21.8072 25.4956 21.8072 23.5774C21.8072 22.9914 21.9552 22.5475 22.0763 22.1843C22.0768 22.1829 22.0772 22.1815 22.0777 22.1801ZM23.0929 22.9567C23.0401 23.1544 23.0072 23.3483 23.0072 23.5774C23.0072 24.8329 24.0813 25.907 25.3367 25.907C26.5922 25.907 27.6663 24.8329 27.6663 23.5774C27.6663 23.4105 27.6286 23.1865 27.5719 22.9567H23.0929Z" fill="white"/>
<path fill-rule="evenodd" clip-rule="evenodd" d="M25.4295 18.2169C25.4396 18.2169 25.4496 18.2169 25.4595 18.2169C27.7439 18.2169 29.5994 20.0723 29.5994 22.3568C29.5994 22.6881 29.3308 22.9568 28.9994 22.9568H21.9196C21.6949 22.9568 21.489 22.8312 21.3861 22.6313C21.2833 22.4315 21.3007 22.1909 21.4314 22.008L23.8727 18.5902C23.9464 18.487 24.0509 18.4098 24.1712 18.3697C24.6307 18.2166 25.0808 18.2167 25.4295 18.2169ZM24.7246 19.4621L23.0855 21.7568H28.3379C28.0603 20.4221 26.8756 19.4169 25.4595 19.4169C25.1634 19.4169 24.9343 19.4197 24.7246 19.4621Z" fill="white"/>
<path fill-rule="evenodd" clip-rule="evenodd" d="M5.99204 21.078C6.10457 20.9655 6.25718 20.9022 6.41631 20.9022H10.8107C10.9698 20.9022 11.1224 20.9655 11.2349 21.078C11.8612 21.7042 12.1431 22.6038 12.1431 23.4553C12.1431 25.3735 10.5317 26.9849 8.61349 26.9849C6.69527 26.9849 5.08391 25.3735 5.08391 23.4553C5.08391 22.6038 5.3658 21.7042 5.99204 21.078ZM6.68978 22.1023C6.43184 22.4513 6.28391 22.9361 6.28391 23.4553C6.28391 24.7108 7.35801 25.7849 8.61349 25.7849C9.86897 25.7849 10.9431 24.7108 10.9431 23.4553C10.9431 22.9361 10.7951 22.4513 10.5372 22.1023H6.68978Z" fill="white"/>
<path fill-rule="evenodd" clip-rule="evenodd" d="M23.4127 6.41647C23.4814 6.39003 23.5544 6.37647 23.6281 6.37647C24.6016 6.37647 25.5708 7.2882 25.5708 8.56333C25.5708 9.05131 25.4113 9.57613 25.0998 9.9914C24.7803 10.4175 24.2789 10.7502 23.6281 10.7502C23.5544 10.7502 23.4814 10.7366 23.4127 10.7102L21.8258 10.0999C21.5165 9.98091 21.3622 9.63375 21.4812 9.32447C21.6001 9.01518 21.9473 8.86089 22.2566 8.97985L23.7214 9.54323C23.8842 9.51833 24.0233 9.42675 24.1398 9.2714C24.2861 9.07635 24.3708 8.80775 24.3708 8.56333C24.3708 7.95632 23.9734 7.64515 23.7129 7.58669L22.2566 8.14681C21.9473 8.26577 21.6001 8.11147 21.4812 7.80219C21.3622 7.49291 21.5165 7.14575 21.8258 7.0268L23.4127 6.41647Z" fill="white"/>
</svg>
