<svg width="32" height="32" viewBox="0 0 32 32" fill="none" xmlns="http://www.w3.org/2000/svg">
<path fill-rule="evenodd" clip-rule="evenodd" d="M15.4695 14.4494C14.6539 14.4494 13.9189 15.1844 13.9189 16C13.9189 16.8156 14.6539 17.5505 15.4695 17.5505C16.2851 17.5505 17.02 16.8156 17.02 16C17.02 15.1844 16.2851 14.4494 15.4695 14.4494ZM12.7189 16C12.7189 14.5216 13.9912 13.2494 15.4695 13.2494C16.9478 13.2494 18.22 14.5216 18.22 16C18.22 17.4783 16.9478 18.7505 15.4695 18.7505C13.9912 18.7505 12.7189 17.4783 12.7189 16Z" fill="white"/>
<path fill-rule="evenodd" clip-rule="evenodd" d="M14.9447 2.20349C15.1614 2.02503 15.4729 2.02069 15.6945 2.19304C17.0647 3.25881 18.0897 4.62592 18.736 5.99468C19.3777 7.35351 19.6693 8.76477 19.5043 9.91996C19.4937 9.99416 19.4693 10.0657 19.4323 10.1309L16.9951 14.432C16.8317 14.7203 16.4994 14.7387 16.2111 14.5754C15.9228 14.412 15.7877 14.1287 15.951 13.8404L18.3298 9.64258C18.42 8.80115 18.204 7.67819 17.6509 6.50708C17.1402 5.42557 16.3601 4.34276 15.3379 3.45322C14.3786 4.34389 13.6289 5.45303 13.1321 6.56693C12.5918 7.77862 12.3752 8.93936 12.4658 9.78598L14.8445 13.9837C15.0079 14.272 14.7885 14.412 14.5002 14.5754C14.2119 14.7387 13.9639 14.8637 13.8005 14.5754L11.3632 10.2743C11.3263 10.2091 11.3019 10.1375 11.2913 10.0633C11.1266 8.91052 11.417 7.46664 12.0362 6.07819C12.6601 4.67903 13.6449 3.27385 14.9447 2.20349Z" fill="white"/>
<path fill-rule="evenodd" clip-rule="evenodd" d="M14.6182 17.3417C14.9065 17.5051 15.0078 17.8713 14.8444 18.1596L12.4657 22.3574C12.3755 23.1988 12.5915 24.3217 13.1445 25.4929C13.6572 26.5785 14.4414 27.6655 15.4693 28.557C16.4973 27.6655 17.2815 26.5785 17.7942 25.4929C18.3472 24.3217 18.5632 23.1988 18.473 22.3574L16.0943 18.1596C15.9309 17.8713 16.0322 17.5051 16.3205 17.3417C16.6088 17.1784 16.9749 17.2796 17.1383 17.5679L19.5756 21.869C19.6125 21.9342 19.6369 22.0058 19.6475 22.08C19.8126 23.2352 19.521 24.6464 18.8793 26.0053C18.2329 27.374 17.208 28.7411 15.8377 29.8069C15.621 29.9754 15.3177 29.9754 15.101 29.8069C13.7307 28.7411 12.7058 27.374 12.0594 26.0053C11.4177 24.6464 11.1261 23.2352 11.2912 22.08C11.3018 22.0058 11.3262 21.9342 11.3631 21.869L13.8004 17.5679C13.9638 17.2796 14.3299 17.1784 14.6182 17.3417Z" fill="white"/>
<path fill-rule="evenodd" clip-rule="evenodd" d="M22.3446 8.12701C23.8506 7.9745 25.567 8.16414 27.1754 8.85348C27.4235 8.95979 27.57 9.21863 27.5336 9.48603C27.304 11.1694 26.6178 12.7287 25.7442 13.963C24.8778 15.1874 23.7884 16.1452 22.71 16.56C22.6413 16.5864 22.5683 16.5999 22.4946 16.5999H17.6201C17.2887 16.5999 17.02 16.3313 17.02 16C17.02 15.6686 17.2887 15.3999 17.6201 15.3999H22.3777C23.1406 15.0739 24.0149 14.3293 24.7647 13.2698C25.4583 12.2897 26.0149 11.0819 26.2681 9.78501C24.9927 9.32402 23.655 9.20045 22.4655 9.32091C21.1761 9.45148 20.1278 9.8607 19.5249 10.3639L17.1385 14.5753C16.9751 14.8636 16.7881 14.6634 16.4998 14.5C16.2115 14.3366 15.9311 14.272 16.0945 13.9837L18.5317 9.68263C18.5636 9.62641 18.6043 9.5757 18.6524 9.53246C19.4964 8.77286 20.8537 8.27799 22.3446 8.12701Z" fill="white"/>
<path fill-rule="evenodd" clip-rule="evenodd" d="M8.22899 15.44C8.29773 15.4135 8.37074 15.4 8.44438 15.4H13.3189C13.6503 15.4 13.5 15.6686 13.5 16C13.5 16.3314 13.6503 16.6 13.3189 16.6H8.56129C7.79839 16.926 6.92409 17.6706 6.17429 18.7301C5.48067 19.7102 4.92404 20.918 4.67089 22.2149C5.94633 22.6759 7.28401 22.7995 8.47354 22.679C9.76291 22.5485 10.8112 22.1392 11.4141 21.636L13.8005 17.4246C13.9639 17.1363 14.2117 17.3367 14.5 17.5C14.7883 17.6634 15.0079 17.7279 14.8445 18.0162L12.4073 22.3173C12.3754 22.3735 12.3347 22.4242 12.2866 22.4675C11.4426 23.2271 10.0853 23.7219 8.59444 23.8729C7.08839 24.0254 5.37203 23.8358 3.76358 23.1465C3.51553 23.0401 3.36897 22.7813 3.40544 22.5139C3.63499 20.8305 4.32121 19.2713 5.19476 18.0369C6.06123 16.8125 7.15061 15.8547 8.22899 15.44Z" fill="white"/>
<path fill-rule="evenodd" clip-rule="evenodd" d="M17.0199 16.1434C17.0199 15.812 17.2885 15.5434 17.6199 15.5434H22.4944C22.5681 15.5434 22.6411 15.5569 22.7098 15.5834C23.7882 15.9981 24.8776 16.9559 25.744 18.1803C26.6176 19.4146 27.3038 20.9739 27.5334 22.6573C27.5711 22.9338 27.4132 23.1997 27.1525 23.299C25.5562 23.9072 23.8517 24.0961 22.3346 23.9633C20.8303 23.8317 19.4443 23.3771 18.5303 22.6293C18.4729 22.5823 18.4247 22.5252 18.3882 22.4607L15.9509 18.1596C15.7875 17.8713 15.9428 17.7314 16.2311 17.568C16.5194 17.4046 16.8316 17.2797 16.9949 17.568L19.3742 21.7667C20.0458 22.2758 21.1321 22.6535 22.4392 22.7679C23.6438 22.8733 24.9846 22.7497 26.2642 22.3392C26.0093 21.0496 25.4547 19.8488 24.7645 18.8735C24.0147 17.814 23.1404 17.0694 22.3775 16.7434H17.6199C17.2885 16.7434 17.0199 16.4747 17.0199 16.1434Z" fill="white"/>
<path fill-rule="evenodd" clip-rule="evenodd" d="M8.4719 8.16158C9.9535 8.27411 11.3289 8.68862 12.2381 9.34989C12.3074 9.40024 12.365 9.46483 12.4073 9.53932L14.8445 13.8404C15.0079 14.1287 14.9066 14.4948 14.6183 14.6582C14.33 14.8216 13.9639 14.7203 13.8005 14.432L11.4304 10.2495C10.7525 9.79854 9.66455 9.45562 8.38102 9.35813C7.19179 9.26781 5.88743 9.39276 4.67328 9.79726C4.92753 11.0895 5.48285 12.2929 6.17429 13.2699C6.92409 14.3294 7.79839 15.074 8.56129 15.4L13.3189 15.4C13.6503 15.4 13.9189 15.6686 13.9189 16C13.9189 16.3313 13.6503 16.6 13.3189 16.6L8.44438 16.6C8.37074 16.6 8.29773 16.5864 8.22899 16.56C7.15061 16.1452 6.06123 15.1874 5.19476 13.9631C4.32121 12.7287 3.63499 11.1695 3.40544 9.48609C3.36824 9.21329 3.52147 8.95018 3.7771 8.84793C5.3076 8.23573 6.97819 8.04813 8.4719 8.16158Z" fill="white"/>
</svg>
