<svg width="24" height="24" viewBox="0 0 24 24" fill="none" xmlns="http://www.w3.org/2000/svg">
<path fill-rule="evenodd" clip-rule="evenodd" d="M11.5014 1.43975C11.7857 1.18675 12.2144 1.18675 12.4986 1.43975L22.4986 10.3398C22.808 10.6151 22.8356 11.0892 22.5603 11.3986C22.2849 11.708 21.8108 11.7356 21.5014 11.4602L20.65 10.7025V22C20.65 22.4142 20.3142 22.75 19.9 22.75H14.603C14.602 22.75 14.601 22.75 14.6 22.75H9.30001C9.29902 22.75 9.29804 22.75 9.29705 22.75H4.00001C3.58579 22.75 3.25001 22.4142 3.25001 22V10.7915L2.49863 11.4602C2.18921 11.7356 1.71514 11.708 1.43976 11.3986C1.16438 11.0892 1.19197 10.6151 1.50139 10.3398L11.5014 1.43975ZM10.05 21.25H13.85V14.05H10.05V21.25ZM15.35 21.25V13.3C15.35 12.8858 15.0142 12.55 14.6 12.55H9.30001C8.8858 12.55 8.55001 12.8858 8.55001 13.3V21.25H4.75001V9.45652L12 3.00402L19.15 9.36752V21.25H15.35Z" fill="white"/>
</svg>
