<svg width="32" height="32" viewBox="0 0 32 32" fill="none" xmlns="http://www.w3.org/2000/svg">
<path fill-rule="evenodd" clip-rule="evenodd" d="M3 15.1183C3 14.7869 3.26863 14.5183 3.6 14.5183H16.4272C16.7586 14.5183 17.0272 14.7869 17.0272 15.1183V27.422C17.0272 27.7533 16.7586 28.022 16.4272 28.022H3.6C3.26863 28.022 3 27.7533 3 27.422V15.1183ZM4.2 15.7183V26.822H15.8272V15.7183H4.2Z" fill="white"/>
<path fill-rule="evenodd" clip-rule="evenodd" d="M10.3297 8.44291C10.3297 8.11154 10.5983 7.84291 10.9297 7.84291H28.5999C28.9312 7.84291 29.1999 8.11154 29.1999 8.44291V27.422C29.1999 27.7533 28.9312 28.022 28.5999 28.022H10.9297C10.5983 28.022 10.3297 27.7533 10.3297 27.422C10.3297 27.0906 10.5983 26.822 10.9297 26.822H27.9999V9.04291H11.5297V15.1183C11.5297 15.4497 11.2611 15.7183 10.9297 15.7183C10.5983 15.7183 10.3297 15.4497 10.3297 15.1183V8.44291Z" fill="white"/>
<path fill-rule="evenodd" clip-rule="evenodd" d="M19.6994 4.2C17.5326 4.2 15.7182 5.90587 15.7182 8.18115V11.3225C15.7182 11.6539 15.4496 11.9225 15.1182 11.9225C14.7869 11.9225 14.5182 11.6539 14.5182 11.3225V8.18115C14.5182 5.22083 16.8924 3 19.6994 3C22.6597 3 24.8806 5.37413 24.8806 8.18115V11.3225C24.8806 11.6539 24.6119 11.9225 24.2806 11.9225C23.9492 11.9225 23.6806 11.6539 23.6806 11.3225V8.18115C23.6806 6.01436 21.9747 4.2 19.6994 4.2Z" fill="white"/>
<path fill-rule="evenodd" clip-rule="evenodd" d="M13.4713 11.3225C13.4713 10.9912 13.74 10.7225 14.0713 10.7225H16.2965C16.6278 10.7225 16.8965 10.9912 16.8965 11.3225C16.8965 11.6539 16.6278 11.9225 16.2965 11.9225H14.0713C13.74 11.9225 13.4713 11.6539 13.4713 11.3225Z" fill="white"/>
<path fill-rule="evenodd" clip-rule="evenodd" d="M22.7644 11.3225C22.7644 10.9912 23.033 10.7225 23.3644 10.7225H25.5895C25.9209 10.7225 26.1895 10.9912 26.1895 11.3225C26.1895 11.6539 25.9209 11.9225 25.5895 11.9225H23.3644C23.033 11.9225 22.7644 11.6539 22.7644 11.3225Z" fill="white"/>
<path fill-rule="evenodd" clip-rule="evenodd" d="M7.39578 16.6126C7.72715 16.6126 7.99578 16.8812 7.99578 17.2126V19.045C7.99578 20.1535 8.90516 21.0628 10.0136 21.0628C11.122 21.0628 12.0314 20.1535 12.0314 19.045V17.2126C12.0314 16.8812 12.3 16.6126 12.6314 16.6126C12.9627 16.6126 13.2314 16.8812 13.2314 17.2126V19.045C13.2314 20.8162 11.7847 22.2628 10.0136 22.2628C8.24242 22.2628 6.79578 20.8162 6.79578 19.045V17.2126C6.79578 16.8812 7.06441 16.6126 7.39578 16.6126Z" fill="white"/>
<path fill-rule="evenodd" clip-rule="evenodd" d="M11.3771 17.2126C11.3771 16.8812 11.6457 16.6126 11.9771 16.6126H13.1551C13.4864 16.6126 13.7551 16.8812 13.7551 17.2126C13.7551 17.5439 13.4864 17.8126 13.1551 17.8126H11.9771C11.6457 17.8126 11.3771 17.5439 11.3771 17.2126Z" fill="white"/>
<path fill-rule="evenodd" clip-rule="evenodd" d="M6.14117 17.2126C6.14117 16.8812 6.4098 16.6126 6.74117 16.6126H7.91918C8.25055 16.6126 8.51918 16.8812 8.51918 17.2126C8.51918 17.5439 8.25055 17.8126 7.91918 17.8126H6.74117C6.4098 17.8126 6.14117 17.5439 6.14117 17.2126Z" fill="white"/>
</svg>
