<svg width="24" height="24" viewBox="0 0 24 24" fill="none" xmlns="http://www.w3.org/2000/svg">
<path d="M5 9C6.65685 9 8 7.65685 8 6C8 4.34315 6.65685 3 5 3C3.34315 3 2 4.34315 2 6C2 7.65685 3.34315 9 5 9Z" stroke="white" stroke-width="1.5" stroke-miterlimit="10" stroke-linecap="round" stroke-linejoin="round"/>
<path d="M5 21.9C6.65685 21.9 8 20.5568 8 18.9C8 17.2431 6.65685 15.9 5 15.9C3.34315 15.9 2 17.2431 2 18.9C2 20.5568 3.34315 21.9 5 21.9Z" stroke="white" stroke-width="1.5" stroke-miterlimit="10" stroke-linecap="round" stroke-linejoin="round"/>
<path d="M18.9 9C20.5569 9 21.9 7.65685 21.9 6C21.9 4.34315 20.5569 3 18.9 3C17.2432 3 15.9 4.34315 15.9 6C15.9 7.65685 17.2432 9 18.9 9Z" stroke="white" stroke-width="1.5" stroke-miterlimit="10" stroke-linecap="round" stroke-linejoin="round"/>
<path d="M18.9 21.9C20.5569 21.9 21.9 20.5568 21.9 18.9C21.9 17.2431 20.5569 15.9 18.9 15.9C17.2432 15.9 15.9 17.2431 15.9 18.9C15.9 20.5568 17.2432 21.9 18.9 21.9Z" stroke="white" stroke-width="1.5" stroke-miterlimit="10" stroke-linecap="round" stroke-linejoin="round"/>
</svg>
