<svg width="24" height="24" viewBox="0 0 24 24" fill="none" xmlns="http://www.w3.org/2000/svg">
<path fill-rule="evenodd" clip-rule="evenodd" d="M2.5 6.6C2.5 6.32386 2.72386 6.1 3 6.1H21C21.2761 6.1 21.5 6.32386 21.5 6.6V11.4C21.5 11.4776 21.4819 11.5542 21.4472 11.6236L21.0472 12.4236C21.0431 12.4319 21.0387 12.44 21.0341 12.4481C19.7069 14.7707 16.4312 14.6817 15.079 12.5413C13.6661 14.8534 10.264 14.6403 9.03385 12.2892L8.92904 12.4569C7.51359 14.9182 3.90415 14.6574 2.74482 12.1069C2.74164 12.0999 2.73862 12.0928 2.73576 12.0857L2.53576 11.5857C2.51214 11.5266 2.5 11.4636 2.5 11.4V6.6ZM15.7598 11.7031C16.602 13.5359 19.1681 13.6774 20.1593 11.9634L20.5 11.282V7.1H3.5V11.3037L3.65977 11.7031C4.50384 13.54 7.07954 13.678 8.06588 11.9519C8.06914 11.9462 8.07252 11.9406 8.076 11.935L8.576 11.135C8.66192 10.9975 8.80915 10.9102 8.97098 10.9008C9.13281 10.8914 9.28917 10.9611 9.39043 11.0877L9.79043 11.5877C9.8163 11.62 9.83805 11.6554 9.85518 11.6931C10.6926 13.5354 13.2663 13.6805 14.2593 11.9634L14.6528 11.1764C14.7408 11.0003 14.9241 10.8922 15.1208 10.9004C15.3175 10.9086 15.4911 11.0315 15.5642 11.2143L15.7598 11.7031Z" fill="white"/>
<path fill-rule="evenodd" clip-rule="evenodd" d="M20 12.4C20.2761 12.4 20.5 12.6239 20.5 12.9V21C20.5 21.2761 20.2761 21.5 20 21.5H4C3.72386 21.5 3.5 21.2761 3.5 21V13C3.5 12.7239 3.72386 12.5 4 12.5C4.27614 12.5 4.5 12.7239 4.5 13V20.5H19.5V12.9C19.5 12.6239 19.7239 12.4 20 12.4Z" fill="white"/>
<path fill-rule="evenodd" clip-rule="evenodd" d="M3.5 4C3.5 3.72386 3.72386 3.5 4 3.5H20C20.2761 3.5 20.5 3.72386 20.5 4V6.6C20.5 6.87614 20.2761 7.1 20 7.1C19.7239 7.1 19.5 6.87614 19.5 6.6V4.5H4.5V6.6C4.5 6.87614 4.27614 7.1 4 7.1C3.72386 7.1 3.5 6.87614 3.5 6.6V4Z" fill="white"/>
<path fill-rule="evenodd" clip-rule="evenodd" d="M9.5 16C9.5 15.7239 9.72386 15.5 10 15.5H14C14.2761 15.5 14.5 15.7239 14.5 16V21C14.5 21.2761 14.2761 21.5 14 21.5H10C9.72386 21.5 9.5 21.2761 9.5 21V16ZM10.5 16.5V20.5H13.5V16.5H10.5Z" fill="white"/>
</svg>
