<svg width="24" height="24" viewBox="0 0 24 24" fill="none" xmlns="http://www.w3.org/2000/svg">
<path fill-rule="evenodd" clip-rule="evenodd" d="M3.76522 11.25H2.00001C1.709 11.25 1.44425 11.4183 1.32082 11.6819C1.19738 11.9454 1.23754 12.2566 1.42384 12.4801L3.92384 15.4801C4.06634 15.6511 4.27742 15.75 4.50001 15.75C4.72259 15.75 4.93368 15.6511 5.07617 15.4801L7.57618 12.4801C7.76248 12.2566 7.80264 11.9454 7.6792 11.6819C7.55577 11.4183 7.29102 11.25 7.00001 11.25H5.268C5.5455 7.02635 8.99919 3.75 13.3 3.75C17.7802 3.75 21.25 7.30857 21.25 11.7C21.25 16.0858 17.6858 19.65 13.3 19.65C11.3634 19.65 9.54247 19.0043 8.19121 17.8332C7.87819 17.562 7.40453 17.5958 7.13325 17.9088C6.86197 18.2218 6.8958 18.6955 7.20882 18.9668C8.85756 20.3957 11.0367 21.15 13.3 21.15C18.5142 21.15 22.75 16.9142 22.75 11.7C22.75 6.49143 18.6198 2.25 13.3 2.25C8.17048 2.25 4.04572 6.1965 3.76522 11.25ZM13.2998 7.05005C13.714 7.05005 14.0498 7.38584 14.0498 7.80005V11.3754L17.1857 13.2569C17.5409 13.47 17.656 13.9307 17.4429 14.2859C17.2298 14.6411 16.7691 14.7563 16.4139 14.5432L12.9139 12.4432C12.688 12.3076 12.5498 12.0635 12.5498 11.8V7.80005C12.5498 7.38584 12.8856 7.05005 13.2998 7.05005ZM4.50001 13.8285L3.60129 12.75H5.39873L4.50001 13.8285Z" fill="white"/>
</svg>
